#!OML:ASF X:\für Bonn\!DataBase\2005_08_10_Bjorn_Final\c3d\bjorn.ASF
:FULLY-SPECIFIED
:DEGREES
526
root -1.49561 1.50624 21.8781 -445.861 -170.043 11.0524
lowerback -2.85856 0.891377 -12.1814
upperback 3.89924 1.49867 -7.47077
thorax 5.6116 0.0866349 -1.00607
lowerneck -6.19078 -6.44718 -3.3917
upperneck 12.2929 -9.41741 5.16492
head 5.11792 -4.68027 1.51605
rclavicle -8.26944e-014 7.4743e-014
rhumerus -176.014 -189.494 138.535
rradius 75.5923
rwrist -16.5611
rhand -11.9155 11.0171
rfingers 7.12502
rthumb 14.1384 -18.4819
lclavicle -8.26944e-014 7.4743e-014
lhumerus -338.975 -38.0765 -327.86
lradius 70.351
lwrist -14.5049
lhand -57.0198 -25.9277
lfingers 7.12502
lthumb -29.3104 1.78225
rfemur -192.138 -161.46 183.576
rtibia 25.5104
rfoot 16.082 7.60284
rtoes -18.8459
lfemur -50.5192 13.4166 -26.3097
ltibia 97.2281
lfoot 26.3392 11.1273
ltoes -2.63854
527
root -1.48302 1.50861 21.8759 -445.686 -169.965 10.8188
lowerback -3.10984 0.897965 -12.229
upperback 3.72824 1.53624 -7.48731
thorax 5.569 0.111116 -0.990285
lowerneck -6.68922 -6.52017 -3.61362
upperneck 11.9569 -9.47295 5.41417
head 5.12346 -4.68564 1.61081
rclavicle 3.97569e-014 -5.60573e-014
rhumerus -176.911 -189.629 139.021
rradius 77.4686
rwrist -16.0616
rhand -12.0403 11.092
rfingers 7.12502
rthumb 14.0181 -18.4153
lclavicle 3.97569e-014 -5.60573e-014
lhumerus -338.966 -38.1451 -328.69
lradius 71.0106
lwrist -14.3762
lhand -57.3597 -26.0696
lfingers 7.12502
lthumb -29.6349 1.58312
rfemur -192.2 -161.335 183.566
rtibia 25.3532
rfoot 16.1551 7.43925
rtoes -18.5704
lfemur -50.685 13.3049 -26.4009
ltibia 97.2153
lfoot 26.3881 11.3065
ltoes -2.50751
528
root -1.47005 1.51072 21.8725 -445.546 -169.904 10.6206
lowerback -3.32272 0.888767 -12.2706
upperback 3.57429 1.54916 -7.49247
thorax 5.52428 0.123955 -0.967791
lowerneck -7.18881 -6.57601 -3.78679
upperneck 11.6231 -9.50787 5.63973
head 5.1256 -4.681 1.69207
rclavicle 7.15625e-014 -3.49861e-014
rhumerus -177.874 -189.858 139.453
rradius 79.4295
rwrist -16.0109
rhand -12.3519 11.1821
rfingers 7.12502
rthumb 13.7179 -18.3458
lclavicle 7.15625e-014 -3.49861e-014
lhumerus -339.021 -38.1953 -329.452
lradius 71.6694
lwrist -14.3105
lhand -57.704 -26.0033
lfingers 7.12502
lthumb -29.9635 1.59062
rfemur -192.217 -161.295 183.563
rtibia 25.2023
rfoot 16.1771 7.12094
rtoes -18.0468
lfemur -50.8027 13.1489 -26.4628
ltibia 97.201
lfoot 26.4284 11.4582
ltoes -2.62028
529
root -1.45769 1.51303 21.869 -445.395 -169.847 10.4215
lowerback -3.55725 0.899135 -12.2649
upperback 3.43386 1.58764 -7.53048
thorax 5.50626 0.148199 -1.00435
lowerneck -7.70885 -6.64914 -3.84537
upperneck 11.3147 -9.57489 5.80015
head 5.13214 -4.69258 1.73167
rclavicle 3.02153e-014 -1.15295e-014
rhumerus -178.949 -190.014 139.818
rradius 81.4315
rwrist -15.9716
rhand -12.6288 11.1716
rfingers 7.12502
rthumb 13.451 -18.3741
lclavicle 3.02153e-014 -1.15295e-014
lhumerus -339.047 -38.2555 -330.237
lradius 72.3471
lwrist -14.2754
lhand -57.9825 -25.7699
lfingers 7.12502
lthumb -30.2292 1.77565
rfemur -192.276 -161.175 183.558
rtibia 25.0729
rfoot 16.2916 6.80028
rtoes -17.2348
lfemur -50.9319 12.9781 -26.5191
ltibia 97.1865
lfoot 26.4478 11.6874
ltoes -2.43174
530
root -1.44477 1.51565 21.8646 -445.262 -169.824 10.2076
lowerback -3.76737 0.919905 -12.2314
upperback 3.29597 1.63411 -7.55746
thorax 5.47647 0.177776 -1.04341
lowerneck -8.2185 -6.71207 -3.86612
upperneck 11.0077 -9.62816 5.91959
head 5.13279 -4.69909 1.75423
rclavicle -3.81667e-014 4.13472e-014
rhumerus -180.11 -190.106 140.147
rradius 83.5048
rwrist -15.9016
rhand -12.5448 10.9825
rfingers 7.12502
rthumb 13.532 -18.5578
lclavicle -3.81667e-014 4.13472e-014
lhumerus -339.134 -38.3104 -330.945
lradius 73.0731
lwrist -14.1894
lhand -58.0703 -25.564
lfingers 7.12502
lthumb -30.313 1.96615
rfemur -192.342 -161.127 183.596
rtibia 24.9562
rfoot 16.3706 6.45492
rtoes -16.4574
lfemur -51.0459 12.8425 -26.5348
ltibia 97.1804
lfoot 26.4402 11.9676
ltoes -2.13221
